Format : AVI
Format/Info : Audio Video Interleave
File size : 700 MiB
Duration : 1h 35mn
Overall bit rate : 1 031 Kbps
Writing application : VirtualDubMod 1.5.4.1 (build 2178/release)
Writing library : VirtualDubMod build 2178/release

Video
ID : 0
Format : MPEG-4 Visual
Format settings, BVOP : Yes
Format settings, QPel : No
Format settings, GMC : No warppoints
Format settings, Matrix : Default (H.263)
Muxing mode : Packed bitstream
Codec ID : DX50
Codec ID/Hint : DivX 5
Duration : 1h 35mn
Bit rate : 895 Kbps
Width : 720 pixels
Height : 320 pixels
Display aspect ratio : 2.25:1
Frame rate : 25.000 fps
Resolution : 24 bits
Colorimetry : 4:2:0
Scan type : Progressive
Bits/(Pixel*Frame) : 0.155
Stream size : 608 MiB (87%)
Writing library : DivX 6.8.4

Audio
ID : 1
Format : MPEG Audio
Format version : Version 1
Format profile : Layer 3
Codec ID : 55
Codec ID/Hint : MP3
Duration : 1h 35mn
Bit rate mode : Constant
Bit rate : 128 Kbps
Channel(s) : 2 channels
Sampling rate : 48.0 KHz
Resolution : 16 bits
Stream size : 87.0 MiB (12%)
Alignment : Aligned on interleaves
Interleave, duration : 80 ms (2.00 video frames)
Interleave, preload duration : 504 ms
Writing library : LAME3.98r
Encoding settings : -m j -V 4 -q 2 -lowpass 17 -b 128
Language : English

Starring
Harvey Keitel
Tim Roth
Steve Buscemi
Chris Penn
Michael Madsen
Lawrence Tierney

The film opens to eight men eating breakfast at a diner. Six of them wear matching suits and are using aliases: Mr. Blonde (Michael Madsen), Mr. Blue (Eddie Bunker), Mr. Brown (Quentin Tarantino), Mr. Orange (Tim Roth), Mr. Pink (Steve Buscemi), and Mr. White (Harvey Keitel). Among them is Los Angeles gangster Joe Cabot (Lawrence Tierney), and his son, "Nice Guy" Eddie Cabot (Chris Penn). Mr. Brown discusses his comparative analysis on Madonna's "Like a Virgin", Joe's senior moments involving his address book rankle Mr. White, and Mr. Pink defends his anti-tipping policy until Joe forces him to leave a tip for the waitresses.
 
http://www.imdb.com/title/tt0105236/

screens
 
http://img827.imageshack.us/img827/6466/reservoirdogsdivxavisna.jpg 
http://img152.imageshack.us/img152/6466/reservoirdogsdivxavisna.jpg 
http://img444.imageshack.us/img444/6466/reservoirdogsdivxavisna.jpg 
http://img695.imageshack.us/img695/6466/reservoirdogsdivxavisna.jpg